<svg xmlns="http://www.w3.org/2000/svg" xmlns:xlink="http://www.w3.org/1999/xlink" width="500" zoomAndPan="magnify" viewBox="0 0 375 74.999997" height="100" preserveAspectRatio="xMidYMid meet" version="1.0"><defs><g/></defs><g fill="#000000" fill-opacity="1"><g transform="translate(18.68014, 46.457002)"><g><path d="M 1.875 -1.0625 C 1.8125 -1.320312 1.78125 -1.851562 1.78125 -2.65625 C 1.78125 -3.457031 1.921875 -4.265625 2.203125 -5.078125 L 2.59375 -5.078125 C 2.570312 -4.890625 2.5625 -4.695312 2.5625 -4.5 C 2.5625 -3.332031 2.941406 -2.375 3.703125 -1.625 C 4.472656 -0.882812 5.539062 -0.515625 6.90625 -0.515625 C 8.320312 -0.515625 9.429688 -0.84375 10.234375 -1.5 C 11.035156 -2.164062 11.4375 -3.019531 11.4375 -4.0625 C 11.4375 -5.113281 11.046875 -5.984375 10.265625 -6.671875 L 3.796875 -11.65625 C 2.753906 -12.539062 2.234375 -13.726562 2.234375 -15.21875 C 2.234375 -16.0625 2.460938 -16.835938 2.921875 -17.546875 C 3.390625 -18.265625 4.039062 -18.832031 4.875 -19.25 C 5.707031 -19.675781 6.679688 -19.890625 7.796875 -19.890625 C 8.921875 -19.890625 9.914062 -19.789062 10.78125 -19.59375 L 11.859375 -19.59375 L 11.921875 -16.0625 L 11.5625 -16.0625 C 11.5625 -16.96875 11.25 -17.671875 10.625 -18.171875 C 10 -18.671875 9.101562 -18.921875 7.9375 -18.921875 C 6.769531 -18.921875 5.804688 -18.625 5.046875 -18.03125 C 4.296875 -17.4375 3.921875 -16.664062 3.921875 -15.71875 C 3.921875 -14.78125 4.34375 -13.96875 5.1875 -13.28125 L 11.71875 -8.234375 C 12.71875 -7.410156 13.21875 -6.265625 13.21875 -4.796875 C 13.21875 -3.328125 12.660156 -2.082031 11.546875 -1.0625 C 10.429688 -0.0507812 9.078125 0.453125 7.484375 0.453125 C 6.421875 0.453125 5.359375 0.320312 4.296875 0.0625 C 3.242188 -0.195312 2.4375 -0.570312 1.875 -1.0625 Z M 1.875 -1.0625 "/></g></g></g><g fill="#000000" fill-opacity="1"><g transform="translate(33.645622, 46.457002)"><g><path d="M 2.234375 -0.328125 C 2.753906 -0.328125 3.191406 -0.492188 3.546875 -0.828125 C 3.898438 -1.160156 4.085938 -1.566406 4.109375 -2.046875 L 4.109375 -17.421875 C 4.109375 -17.898438 3.925781 -18.300781 3.5625 -18.625 C 3.195312 -18.945312 2.753906 -19.109375 2.234375 -19.109375 L 1.78125 -19.109375 L 1.78125 -19.4375 L 11.234375 -19.4375 C 12.117188 -19.4375 12.894531 -19.5 13.5625 -19.625 C 14.238281 -19.757812 14.675781 -19.867188 14.875 -19.953125 L 14.875 -16.265625 L 14.515625 -16.296875 L 14.515625 -16.78125 C 14.515625 -17.226562 14.363281 -17.613281 14.0625 -17.9375 C 13.757812 -18.269531 13.367188 -18.4375 12.890625 -18.4375 L 6.15625 -18.4375 L 6.15625 -10.203125 L 11.6875 -10.203125 C 12.125 -10.203125 12.453125 -10.332031 12.671875 -10.59375 C 12.898438 -10.851562 13.015625 -11.175781 13.015625 -11.5625 L 13.015625 -11.984375 L 13.375 -11.984375 L 13.375 -7.453125 L 13.015625 -7.453125 L 13.015625 -7.875 C 13.015625 -8.476562 12.789062 -8.890625 12.34375 -9.109375 C 12.164062 -9.171875 11.984375 -9.210938 11.796875 -9.234375 L 6.15625 -9.234375 L 6.15625 -1 L 11.234375 -1 C 12.234375 -1 13.070312 -1.171875 13.75 -1.515625 C 14.425781 -1.867188 14.941406 -2.28125 15.296875 -2.75 C 15.660156 -3.226562 16.023438 -3.851562 16.390625 -4.625 L 16.71875 -4.625 L 14.9375 0 L 1.78125 0 L 1.78125 -0.328125 Z M 2.234375 -0.328125 "/></g></g></g><g fill="#000000" fill-opacity="1"><g transform="translate(51.3321, 46.457002)"><g><path d="M 7.84375 -18.4375 L 6.125 -18.4375 L 6.125 -2.078125 C 6.144531 -1.398438 6.445312 -0.890625 7.03125 -0.546875 C 7.3125 -0.398438 7.625 -0.328125 7.96875 -0.328125 L 8.390625 -0.328125 L 8.421875 0 L 1.78125 0 L 1.78125 -0.328125 L 2.234375 -0.328125 C 2.734375 -0.328125 3.160156 -0.492188 3.515625 -0.828125 C 3.867188 -1.160156 4.046875 -1.566406 4.046875 -2.046875 L 4.046875 -17.421875 C 4.046875 -17.898438 3.867188 -18.300781 3.515625 -18.625 C 3.160156 -18.945312 2.734375 -19.109375 2.234375 -19.109375 L 1.78125 -19.109375 L 1.78125 -19.4375 L 9.90625 -19.4375 C 11.9375 -19.4375 13.539062 -18.972656 14.71875 -18.046875 C 15.894531 -17.117188 16.484375 -15.894531 16.484375 -14.375 C 16.484375 -12.863281 16.007812 -11.597656 15.0625 -10.578125 C 14.113281 -9.566406 12.90625 -8.988281 11.4375 -8.84375 C 12.125 -8.539062 12.953125 -7.695312 13.921875 -6.3125 C 13.898438 -6.3125 14.269531 -5.835938 15.03125 -4.890625 C 15.800781 -3.941406 16.421875 -3.203125 16.890625 -2.671875 C 17.359375 -2.140625 17.742188 -1.734375 18.046875 -1.453125 C 18.835938 -0.703125 19.753906 -0.328125 20.796875 -0.328125 L 20.796875 0 L 19.796875 0 C 18.085938 0 16.75 -0.332031 15.78125 -1 C 15.039062 -1.5 14.367188 -2.113281 13.765625 -2.84375 C 13.640625 -3.019531 13.09375 -3.78125 12.125 -5.125 C 11.164062 -6.476562 10.65625 -7.195312 10.59375 -7.28125 C 9.425781 -8.726562 8.332031 -9.453125 7.3125 -9.453125 L 7.3125 -9.78125 C 9.84375 -9.78125 11.367188 -9.910156 11.890625 -10.171875 C 12.597656 -10.535156 13.082031 -10.925781 13.34375 -11.34375 C 13.882812 -12.195312 14.15625 -13.144531 14.15625 -14.1875 C 14.15625 -15.5 13.765625 -16.507812 12.984375 -17.21875 C 12.210938 -17.9375 11.164062 -18.328125 9.84375 -18.390625 C 9.257812 -18.421875 8.59375 -18.4375 7.84375 -18.4375 Z M 7.84375 -18.4375 "/></g></g></g><g fill="#000000" fill-opacity="1"><g transform="translate(71.642394, 46.457002)"><g><path d="M 2.234375 -0.328125 C 2.753906 -0.328125 3.191406 -0.492188 3.546875 -0.828125 C 3.898438 -1.160156 4.085938 -1.566406 4.109375 -2.046875 L 4.109375 -17.421875 C 4.109375 -17.898438 3.925781 -18.300781 3.5625 -18.625 C 3.195312 -18.945312 2.753906 -19.109375 2.234375 -19.109375 L 1.78125 -19.109375 L 1.78125 -19.4375 L 11.234375 -19.4375 C 12.117188 -19.4375 12.894531 -19.5 13.5625 -19.625 C 14.238281 -19.757812 14.675781 -19.867188 14.875 -19.953125 L 14.875 -16.265625 L 14.515625 -16.296875 L 14.515625 -16.78125 C 14.515625 -17.226562 14.363281 -17.613281 14.0625 -17.9375 C 13.757812 -18.269531 13.367188 -18.4375 12.890625 -18.4375 L 6.15625 -18.4375 L 6.15625 -10.203125 L 11.6875 -10.203125 C 12.125 -10.203125 12.453125 -10.332031 12.671875 -10.59375 C 12.898438 -10.851562 13.015625 -11.175781 13.015625 -11.5625 L 13.015625 -11.984375 L 13.375 -11.984375 L 13.375 -7.453125 L 13.015625 -7.453125 L 13.015625 -7.875 C 13.015625 -8.476562 12.789062 -8.890625 12.34375 -9.109375 C 12.164062 -9.171875 11.984375 -9.210938 11.796875 -9.234375 L 6.15625 -9.234375 L 6.15625 -1 L 11.234375 -1 C 12.234375 -1 13.070312 -1.171875 13.75 -1.515625 C 14.425781 -1.867188 14.941406 -2.28125 15.296875 -2.75 C 15.660156 -3.226562 16.023438 -3.851562 16.390625 -4.625 L 16.71875 -4.625 L 14.9375 0 L 1.78125 0 L 1.78125 -0.328125 Z M 2.234375 -0.328125 "/></g></g></g><g fill="#000000" fill-opacity="1"><g transform="translate(89.328872, 46.457002)"><g><path d="M 23.546875 -19.109375 C 23.066406 -19.109375 22.65625 -18.953125 22.3125 -18.640625 C 21.96875 -18.328125 21.785156 -17.941406 21.765625 -17.484375 L 21.765625 -3.6875 C 21.765625 -2.4375 21.84375 -1.25 22 -0.125 L 22.0625 0.453125 L 21.765625 0.453125 L 4.921875 -15.515625 L 4.921875 -2.015625 C 4.921875 -1.535156 5.09375 -1.132812 5.4375 -0.8125 C 5.78125 -0.488281 6.203125 -0.328125 6.703125 -0.328125 L 7.25 -0.328125 L 7.25 0 L 1.140625 0 L 1.140625 -0.328125 L 1.6875 -0.328125 C 2.175781 -0.328125 2.59375 -0.488281 2.9375 -0.8125 C 3.289062 -1.132812 3.46875 -1.535156 3.46875 -2.015625 L 3.46875 -15.875 C 3.46875 -17.1875 3.390625 -18.363281 3.234375 -19.40625 L 3.171875 -19.921875 L 3.53125 -19.890625 L 20.34375 -4.046875 L 20.34375 -17.484375 C 20.300781 -17.941406 20.101562 -18.328125 19.75 -18.640625 C 19.40625 -18.953125 19 -19.109375 18.53125 -19.109375 L 17.984375 -19.109375 L 17.984375 -19.4375 L 24.09375 -19.4375 L 24.09375 -19.109375 Z M 23.546875 -19.109375 "/></g></g></g><g fill="#000000" fill-opacity="1"><g transform="translate(114.562878, 46.457002)"><g><path d="M 23 -9.71875 C 23 -6.71875 22.0625 -4.347656 20.1875 -2.609375 C 18.320312 -0.867188 15.789062 0 12.59375 0 L 1.78125 0 L 1.78125 -0.328125 L 2.203125 -0.328125 C 2.722656 -0.328125 3.15625 -0.5 3.5 -0.84375 C 3.84375 -1.1875 4.023438 -1.597656 4.046875 -2.078125 L 4.046875 -17.359375 C 4.023438 -17.878906 3.835938 -18.300781 3.484375 -18.625 C 3.128906 -18.945312 2.691406 -19.109375 2.171875 -19.109375 L 1.78125 -19.109375 L 1.78125 -19.4375 L 12.59375 -19.4375 C 14.71875 -19.4375 16.5625 -19.046875 18.125 -18.265625 C 19.6875 -17.492188 20.890625 -16.375 21.734375 -14.90625 C 22.578125 -13.4375 23 -11.707031 23 -9.71875 Z M 6.15625 -18.46875 L 6.15625 -0.96875 L 12.59375 -0.96875 C 15.082031 -0.96875 17.050781 -1.75 18.5 -3.3125 C 19.945312 -4.882812 20.671875 -7.019531 20.671875 -9.71875 C 20.671875 -12.414062 19.945312 -14.546875 18.5 -16.109375 C 17.050781 -17.679688 15.082031 -18.46875 12.59375 -18.46875 Z M 6.15625 -18.46875 "/></g></g></g><g fill="#000000" fill-opacity="1"><g transform="translate(139.181424, 46.457002)"><g><path d="M 2.234375 -0.328125 C 2.816406 -0.328125 3.320312 -0.5 3.75 -0.84375 C 4.1875 -1.1875 4.40625 -1.597656 4.40625 -2.078125 L 4.40625 -17.359375 C 4.40625 -17.835938 4.1875 -18.25 3.75 -18.59375 C 3.320312 -18.9375 2.804688 -19.109375 2.203125 -19.109375 L 1.78125 -19.109375 L 1.78125 -19.4375 L 9.109375 -19.4375 L 9.109375 -19.109375 L 8.6875 -19.109375 C 8.101562 -19.109375 7.597656 -18.945312 7.171875 -18.625 C 6.753906 -18.300781 6.523438 -17.898438 6.484375 -17.421875 L 6.484375 -2.046875 C 6.503906 -1.566406 6.726562 -1.160156 7.15625 -0.828125 C 7.59375 -0.492188 8.101562 -0.328125 8.6875 -0.328125 L 9.109375 -0.328125 L 9.140625 0 L 1.78125 0 L 1.78125 -0.328125 Z M 2.234375 -0.328125 "/></g></g></g><g fill="#000000" fill-opacity="1"><g transform="translate(150.065416, 46.457002)"><g/></g></g><g fill="#000000" fill-opacity="1"><g transform="translate(158.163612, 46.457002)"><g><path d="M 20.3125 -12.140625 C 19.851562 -12.140625 19.53125 -12.023438 19.34375 -11.796875 C 19.164062 -11.578125 19.078125 -11.363281 19.078125 -11.15625 C 19.078125 -10.945312 19.125 -10.601562 19.21875 -10.125 C 19.320312 -9.65625 19.375 -9.035156 19.375 -8.265625 C 19.375 -6.554688 18.972656 -5 18.171875 -3.59375 C 18.953125 -2.925781 19.566406 -2.410156 20.015625 -2.046875 C 20.472656 -1.691406 21.066406 -1.328125 21.796875 -0.953125 C 22.535156 -0.578125 23.21875 -0.367188 23.84375 -0.328125 L 23.84375 0 C 23.820312 0 23.640625 0 23.296875 0 C 22.960938 0 22.722656 0 22.578125 0 C 22.441406 0 22.1875 -0.0078125 21.8125 -0.03125 C 21.4375 -0.0507812 21.128906 -0.0859375 20.890625 -0.140625 C 20.648438 -0.203125 20.335938 -0.273438 19.953125 -0.359375 C 19.566406 -0.441406 19.222656 -0.5625 18.921875 -0.71875 C 18.140625 -1.0625 17.457031 -1.457031 16.875 -1.90625 C 15.34375 -0.414062 13.347656 0.328125 10.890625 0.328125 C 7.734375 0.328125 5.289062 -0.328125 3.5625 -1.640625 C 1.832031 -2.960938 0.96875 -4.832031 0.96875 -7.25 C 0.96875 -9.925781 2.273438 -11.925781 4.890625 -13.25 C 4.066406 -14.5625 3.65625 -16.007812 3.65625 -17.59375 C 3.65625 -19.1875 4.238281 -20.503906 5.40625 -21.546875 C 6.613281 -22.597656 8.203125 -23.125 10.171875 -23.125 C 11.273438 -23.125 12.320312 -22.910156 13.3125 -22.484375 C 14.300781 -22.066406 15.085938 -21.515625 15.671875 -20.828125 L 15.09375 -17.171875 L 14.765625 -17.171875 C 14.765625 -18.722656 14.34375 -19.941406 13.5 -20.828125 C 12.664062 -21.710938 11.59375 -22.15625 10.28125 -22.15625 C 8.976562 -22.15625 7.921875 -21.722656 7.109375 -20.859375 C 6.296875 -19.992188 5.890625 -18.910156 5.890625 -17.609375 C 5.890625 -16.316406 6.289062 -15.097656 7.09375 -13.953125 C 7.894531 -12.816406 9.457031 -11.210938 11.78125 -9.140625 C 14.113281 -7.066406 15.820312 -5.578125 16.90625 -4.671875 C 17.363281 -5.660156 17.59375 -6.679688 17.59375 -7.734375 C 17.59375 -8.796875 17.359375 -9.796875 16.890625 -10.734375 C 16.421875 -11.671875 15.734375 -12.140625 14.828125 -12.140625 L 14.34375 -12.140625 L 14.34375 -12.46875 L 20.796875 -12.46875 L 20.796875 -12.140625 Z M 15.78125 -2.84375 C 10.25 -7.40625 6.789062 -10.613281 5.40625 -12.46875 C 4.03125 -11.175781 3.34375 -9.488281 3.34375 -7.40625 C 3.34375 -5.320312 4.003906 -3.671875 5.328125 -2.453125 C 6.648438 -1.242188 8.503906 -0.640625 10.890625 -0.640625 C 12.867188 -0.640625 14.5 -1.375 15.78125 -2.84375 Z M 15.78125 -2.84375 "/></g></g></g><g fill="#000000" fill-opacity="1"><g transform="translate(179.089375, 46.457002)"><g/></g></g><g fill="#000000" fill-opacity="1"><g transform="translate(187.18758, 46.457002)"><g><path d="M 29.15625 -0.328125 L 29.671875 -0.328125 L 29.671875 0 L 22.640625 0 L 22.640625 -0.296875 L 23.125 -0.296875 C 23.488281 -0.296875 23.800781 -0.441406 24.0625 -0.734375 C 24.320312 -1.023438 24.429688 -1.34375 24.390625 -1.6875 L 22.9375 -17.984375 L 16.125 -2.84375 C 15.519531 -1.53125 15.15625 -0.429688 15.03125 0.453125 L 14.703125 0.453125 L 6.40625 -17.515625 L 5.015625 -1.6875 C 4.972656 -1.34375 5.082031 -1.023438 5.34375 -0.734375 C 5.601562 -0.441406 5.90625 -0.296875 6.25 -0.296875 L 6.765625 -0.296875 L 6.765625 0 L 0.484375 0 L 0.484375 -0.328125 L 1 -0.328125 C 1.601562 -0.328125 2.125 -0.507812 2.5625 -0.875 C 3.007812 -1.238281 3.28125 -1.734375 3.375 -2.359375 L 5.796875 -23.125 L 6.125 -23.125 L 15.15625 -3.59375 L 24 -23.125 L 24.296875 -23.125 L 26.78125 -2.359375 C 26.894531 -1.492188 27.328125 -0.890625 28.078125 -0.546875 C 28.398438 -0.398438 28.757812 -0.328125 29.15625 -0.328125 Z M 29.15625 -0.328125 "/></g></g></g><g fill="#000000" fill-opacity="1"><g transform="translate(217.345288, 46.457002)"><g><path d="M 21.375 -0.328125 L 21.640625 -0.328125 L 21.640625 0 L 15 0 L 15 -0.328125 L 15.25 -0.328125 C 15.664062 -0.328125 15.976562 -0.46875 16.1875 -0.75 C 16.40625 -1.03125 16.515625 -1.289062 16.515625 -1.53125 C 16.515625 -1.78125 16.472656 -2.023438 16.390625 -2.265625 L 14.609375 -6.578125 L 6.40625 -6.578125 L 4.625 -2.359375 C 4.519531 -2.078125 4.46875 -1.8125 4.46875 -1.5625 C 4.46875 -1.320312 4.578125 -1.054688 4.796875 -0.765625 C 5.015625 -0.472656 5.335938 -0.328125 5.765625 -0.328125 L 6.03125 -0.328125 L 6.03125 0 L -0.15625 0 L -0.15625 -0.328125 L 0.09375 -0.328125 C 0.550781 -0.328125 1.007812 -0.484375 1.46875 -0.796875 C 1.9375 -1.109375 2.320312 -1.578125 2.625 -2.203125 C 7.351562 -12.304688 9.816406 -17.597656 10.015625 -18.078125 C 10.378906 -18.984375 10.570312 -19.585938 10.59375 -19.890625 L 10.890625 -19.890625 L 18.890625 -2.203125 C 19.515625 -0.953125 20.34375 -0.328125 21.375 -0.328125 Z M 6.828125 -7.546875 L 14.21875 -7.546875 L 10.59375 -16.421875 Z M 6.828125 -7.546875 "/></g></g></g><g fill="#000000" fill-opacity="1"><g transform="translate(238.821719, 46.457002)"><g><path d="M 7.84375 -18.4375 L 6.125 -18.4375 L 6.125 -2.078125 C 6.144531 -1.398438 6.445312 -0.890625 7.03125 -0.546875 C 7.3125 -0.398438 7.625 -0.328125 7.96875 -0.328125 L 8.390625 -0.328125 L 8.421875 0 L 1.78125 0 L 1.78125 -0.328125 L 2.234375 -0.328125 C 2.734375 -0.328125 3.160156 -0.492188 3.515625 -0.828125 C 3.867188 -1.160156 4.046875 -1.566406 4.046875 -2.046875 L 4.046875 -17.421875 C 4.046875 -17.898438 3.867188 -18.300781 3.515625 -18.625 C 3.160156 -18.945312 2.734375 -19.109375 2.234375 -19.109375 L 1.78125 -19.109375 L 1.78125 -19.4375 L 9.90625 -19.4375 C 11.9375 -19.4375 13.539062 -18.972656 14.71875 -18.046875 C 15.894531 -17.117188 16.484375 -15.894531 16.484375 -14.375 C 16.484375 -12.863281 16.007812 -11.597656 15.0625 -10.578125 C 14.113281 -9.566406 12.90625 -8.988281 11.4375 -8.84375 C 12.125 -8.539062 12.953125 -7.695312 13.921875 -6.3125 C 13.898438 -6.3125 14.269531 -5.835938 15.03125 -4.890625 C 15.800781 -3.941406 16.421875 -3.203125 16.890625 -2.671875 C 17.359375 -2.140625 17.742188 -1.734375 18.046875 -1.453125 C 18.835938 -0.703125 19.753906 -0.328125 20.796875 -0.328125 L 20.796875 0 L 19.796875 0 C 18.085938 0 16.75 -0.332031 15.78125 -1 C 15.039062 -1.5 14.367188 -2.113281 13.765625 -2.84375 C 13.640625 -3.019531 13.09375 -3.78125 12.125 -5.125 C 11.164062 -6.476562 10.65625 -7.195312 10.59375 -7.28125 C 9.425781 -8.726562 8.332031 -9.453125 7.3125 -9.453125 L 7.3125 -9.78125 C 9.84375 -9.78125 11.367188 -9.910156 11.890625 -10.171875 C 12.597656 -10.535156 13.082031 -10.925781 13.34375 -11.34375 C 13.882812 -12.195312 14.15625 -13.144531 14.15625 -14.1875 C 14.15625 -15.5 13.765625 -16.507812 12.984375 -17.21875 C 12.210938 -17.9375 11.164062 -18.328125 9.84375 -18.390625 C 9.257812 -18.421875 8.59375 -18.4375 7.84375 -18.4375 Z M 7.84375 -18.4375 "/></g></g></g><g fill="#000000" fill-opacity="1"><g transform="translate(259.132006, 46.457002)"><g><path d="M 30.875 4.953125 C 34.15625 4.953125 36.722656 4.097656 38.578125 2.390625 L 38.671875 2.53125 C 38.523438 2.914062 38.207031 3.351562 37.71875 3.84375 C 37.226562 4.34375 36.550781 4.851562 35.6875 5.375 C 33.945312 6.363281 32.113281 6.859375 30.1875 6.859375 C 28.21875 6.859375 26.273438 6.453125 24.359375 5.640625 C 23.554688 5.316406 22.367188 4.742188 20.796875 3.921875 C 17.035156 1.953125 14.257812 0.796875 12.46875 0.453125 C 9.382812 0.453125 6.804688 -0.492188 4.734375 -2.390625 C 2.660156 -4.296875 1.625 -6.738281 1.625 -9.71875 C 1.625 -11.1875 1.898438 -12.554688 2.453125 -13.828125 C 3.015625 -15.097656 3.773438 -16.175781 4.734375 -17.0625 C 5.703125 -17.945312 6.84375 -18.640625 8.15625 -19.140625 C 9.476562 -19.640625 10.992188 -19.890625 12.703125 -19.890625 C 14.421875 -19.890625 16.09375 -19.460938 17.71875 -18.609375 C 19.351562 -17.753906 20.644531 -16.550781 21.59375 -15 C 22.550781 -13.445312 23.03125 -11.6875 23.03125 -9.71875 C 23.03125 -7.207031 22.28125 -5.0625 20.78125 -3.28125 C 19.28125 -1.5 17.332031 -0.351562 14.9375 0.15625 C 16.789062 0.695312 19.992188 1.875 24.546875 3.6875 C 26.640625 4.53125 28.75 4.953125 30.875 4.953125 Z M 6.390625 -16.34375 C 4.804688 -14.625 4.015625 -12.414062 4.015625 -9.71875 C 4.015625 -7.019531 4.804688 -4.8125 6.390625 -3.09375 C 7.984375 -1.375 9.960938 -0.515625 12.328125 -0.515625 C 14.691406 -0.515625 16.671875 -1.375 18.265625 -3.09375 C 19.867188 -4.8125 20.671875 -7.019531 20.671875 -9.71875 C 20.671875 -12.414062 19.867188 -14.625 18.265625 -16.34375 C 16.671875 -18.0625 14.691406 -18.921875 12.328125 -18.921875 C 9.960938 -18.921875 7.984375 -18.0625 6.390625 -16.34375 Z M 6.390625 -16.34375 "/></g></g></g><g fill="#000000" fill-opacity="1"><g transform="translate(284.301228, 46.457002)"><g><path d="M 21.546875 -19.109375 L 21.046875 -19.109375 C 20.460938 -19.109375 20.019531 -18.882812 19.71875 -18.4375 C 19.59375 -18.238281 19.519531 -18.007812 19.5 -17.75 L 19.5 -6.828125 C 19.5 -4.585938 18.78125 -2.8125 17.34375 -1.5 C 15.90625 -0.195312 13.929688 0.453125 11.421875 0.453125 C 8.921875 0.453125 6.945312 -0.191406 5.5 -1.484375 C 4.0625 -2.785156 3.34375 -4.554688 3.34375 -6.796875 L 3.34375 -17.71875 C 3.34375 -18.101562 3.1875 -18.429688 2.875 -18.703125 C 2.570312 -18.972656 2.207031 -19.109375 1.78125 -19.109375 L 1.296875 -19.109375 L 1.296875 -19.4375 L 7.453125 -19.4375 L 7.453125 -19.109375 L 6.96875 -19.109375 C 6.53125 -19.109375 6.160156 -18.972656 5.859375 -18.703125 C 5.554688 -18.429688 5.40625 -18.101562 5.40625 -17.71875 L 5.40625 -7.1875 C 5.40625 -5.09375 5.9375 -3.441406 7 -2.234375 C 8.070312 -1.023438 9.585938 -0.421875 11.546875 -0.421875 C 13.503906 -0.421875 15.070312 -0.992188 16.25 -2.140625 C 17.425781 -3.285156 18.015625 -4.847656 18.015625 -6.828125 L 18.015625 -17.71875 C 17.992188 -18.125 17.835938 -18.457031 17.546875 -18.71875 C 17.253906 -18.976562 16.890625 -19.109375 16.453125 -19.109375 L 15.96875 -19.109375 L 15.96875 -19.4375 L 21.546875 -19.4375 Z M 21.546875 -19.109375 "/></g></g></g><g fill="#000000" fill-opacity="1"><g transform="translate(306.976208, 46.457002)"><g><path d="M 2.234375 -0.328125 C 2.816406 -0.328125 3.320312 -0.5 3.75 -0.84375 C 4.1875 -1.1875 4.40625 -1.597656 4.40625 -2.078125 L 4.40625 -17.359375 C 4.40625 -17.835938 4.1875 -18.25 3.75 -18.59375 C 3.320312 -18.9375 2.804688 -19.109375 2.203125 -19.109375 L 1.78125 -19.109375 L 1.78125 -19.4375 L 9.109375 -19.4375 L 9.109375 -19.109375 L 8.6875 -19.109375 C 8.101562 -19.109375 7.597656 -18.945312 7.171875 -18.625 C 6.753906 -18.300781 6.523438 -17.898438 6.484375 -17.421875 L 6.484375 -2.046875 C 6.503906 -1.566406 6.726562 -1.160156 7.15625 -0.828125 C 7.59375 -0.492188 8.101562 -0.328125 8.6875 -0.328125 L 9.109375 -0.328125 L 9.140625 0 L 1.78125 0 L 1.78125 -0.328125 Z M 2.234375 -0.328125 "/></g></g></g><g fill="#000000" fill-opacity="1"><g transform="translate(317.860192, 46.457002)"><g><path d="M 1.875 -1.0625 C 1.8125 -1.320312 1.78125 -1.851562 1.78125 -2.65625 C 1.78125 -3.457031 1.921875 -4.265625 2.203125 -5.078125 L 2.59375 -5.078125 C 2.570312 -4.890625 2.5625 -4.695312 2.5625 -4.5 C 2.5625 -3.332031 2.941406 -2.375 3.703125 -1.625 C 4.472656 -0.882812 5.539062 -0.515625 6.90625 -0.515625 C 8.320312 -0.515625 9.429688 -0.84375 10.234375 -1.5 C 11.035156 -2.164062 11.4375 -3.019531 11.4375 -4.0625 C 11.4375 -5.113281 11.046875 -5.984375 10.265625 -6.671875 L 3.796875 -11.65625 C 2.753906 -12.539062 2.234375 -13.726562 2.234375 -15.21875 C 2.234375 -16.0625 2.460938 -16.835938 2.921875 -17.546875 C 3.390625 -18.265625 4.039062 -18.832031 4.875 -19.25 C 5.707031 -19.675781 6.679688 -19.890625 7.796875 -19.890625 C 8.921875 -19.890625 9.914062 -19.789062 10.78125 -19.59375 L 11.859375 -19.59375 L 11.921875 -16.0625 L 11.5625 -16.0625 C 11.5625 -16.96875 11.25 -17.671875 10.625 -18.171875 C 10 -18.671875 9.101562 -18.921875 7.9375 -18.921875 C 6.769531 -18.921875 5.804688 -18.625 5.046875 -18.03125 C 4.296875 -17.4375 3.921875 -16.664062 3.921875 -15.71875 C 3.921875 -14.78125 4.34375 -13.96875 5.1875 -13.28125 L 11.71875 -8.234375 C 12.71875 -7.410156 13.21875 -6.265625 13.21875 -4.796875 C 13.21875 -3.328125 12.660156 -2.082031 11.546875 -1.0625 C 10.429688 -0.0507812 9.078125 0.453125 7.484375 0.453125 C 6.421875 0.453125 5.359375 0.320312 4.296875 0.0625 C 3.242188 -0.195312 2.4375 -0.570312 1.875 -1.0625 Z M 1.875 -1.0625 "/></g></g></g><g fill="#000000" fill-opacity="1"><g transform="translate(332.825682, 46.457002)"><g><path d="M 2.234375 -0.328125 C 2.753906 -0.328125 3.191406 -0.492188 3.546875 -0.828125 C 3.898438 -1.160156 4.085938 -1.566406 4.109375 -2.046875 L 4.109375 -17.421875 C 4.109375 -17.898438 3.925781 -18.300781 3.5625 -18.625 C 3.195312 -18.945312 2.753906 -19.109375 2.234375 -19.109375 L 1.78125 -19.109375 L 1.78125 -19.4375 L 11.234375 -19.4375 C 12.117188 -19.4375 12.894531 -19.5 13.5625 -19.625 C 14.238281 -19.757812 14.675781 -19.867188 14.875 -19.953125 L 14.875 -16.265625 L 14.515625 -16.296875 L 14.515625 -16.78125 C 14.515625 -17.226562 14.363281 -17.613281 14.0625 -17.9375 C 13.757812 -18.269531 13.367188 -18.4375 12.890625 -18.4375 L 6.15625 -18.4375 L 6.15625 -10.203125 L 11.6875 -10.203125 C 12.125 -10.203125 12.453125 -10.332031 12.671875 -10.59375 C 12.898438 -10.851562 13.015625 -11.175781 13.015625 -11.5625 L 13.015625 -11.984375 L 13.375 -11.984375 L 13.375 -7.453125 L 13.015625 -7.453125 L 13.015625 -7.875 C 13.015625 -8.476562 12.789062 -8.890625 12.34375 -9.109375 C 12.164062 -9.171875 11.984375 -9.210938 11.796875 -9.234375 L 6.15625 -9.234375 L 6.15625 -1 L 11.234375 -1 C 12.234375 -1 13.070312 -1.171875 13.75 -1.515625 C 14.425781 -1.867188 14.941406 -2.28125 15.296875 -2.75 C 15.660156 -3.226562 16.023438 -3.851562 16.390625 -4.625 L 16.71875 -4.625 L 14.9375 0 L 1.78125 0 L 1.78125 -0.328125 Z M 2.234375 -0.328125 "/></g></g></g><g fill="#000000" fill-opacity="1"><g transform="translate(350.512176, 46.457002)"><g><path d="M 3.953125 -0.296875 C 3.671875 -0.015625 3.320312 0.125 2.90625 0.125 C 2.5 0.125 2.15625 -0.015625 1.875 -0.296875 C 1.59375 -0.578125 1.453125 -0.921875 1.453125 -1.328125 C 1.453125 -1.734375 1.59375 -2.078125 1.875 -2.359375 C 2.15625 -2.640625 2.5 -2.78125 2.90625 -2.78125 C 3.320312 -2.78125 3.671875 -2.640625 3.953125 -2.359375 C 4.234375 -2.078125 4.375 -1.734375 4.375 -1.328125 C 4.375 -0.921875 4.234375 -0.578125 3.953125 -0.296875 Z M 3.953125 -0.296875 "/></g></g></g></svg>