<svg xmlns="http://www.w3.org/2000/svg" xmlns:xlink="http://www.w3.org/1999/xlink" width="375" zoomAndPan="magnify" viewBox="0 0 281.25 37.5" height="50" preserveAspectRatio="xMidYMid meet" version="1.0"><path fill="#000000" d="M 4.363281 29.507812 C 4.3125 29.296875 4.285156 28.867188 4.285156 28.21875 C 4.285156 27.570312 4.398438 26.914062 4.628906 26.257812 L 4.945312 26.257812 C 4.925781 26.410156 4.921875 26.566406 4.921875 26.726562 C 4.921875 27.671875 5.230469 28.445312 5.847656 29.050781 C 6.472656 29.652344 7.339844 29.949219 8.453125 29.949219 C 9.601562 29.949219 10.503906 29.683594 11.160156 29.152344 C 11.8125 28.613281 12.136719 27.921875 12.136719 27.078125 C 12.136719 26.230469 11.820312 25.523438 11.183594 24.96875 L 5.925781 20.933594 C 5.078125 20.21875 4.652344 19.257812 4.652344 18.050781 C 4.652344 17.367188 4.839844 16.742188 5.214844 16.167969 C 5.59375 15.585938 6.121094 15.128906 6.800781 14.789062 C 7.476562 14.445312 8.269531 14.269531 9.175781 14.269531 C 10.09375 14.269531 10.898438 14.351562 11.605469 14.511719 L 12.480469 14.511719 L 12.53125 17.367188 L 12.238281 17.367188 C 12.238281 16.636719 11.984375 16.066406 11.476562 15.660156 C 10.96875 15.257812 10.238281 15.054688 9.292969 15.054688 C 8.34375 15.054688 7.558594 15.292969 6.941406 15.773438 C 6.332031 16.253906 6.027344 16.882812 6.027344 17.648438 C 6.027344 18.40625 6.371094 19.0625 7.054688 19.617188 L 12.367188 23.703125 C 13.179688 24.371094 13.585938 25.296875 13.585938 26.484375 C 13.585938 27.671875 13.132812 28.679688 12.226562 29.507812 C 11.316406 30.324219 10.21875 30.734375 8.921875 30.734375 C 8.058594 30.734375 7.195312 30.625 6.332031 30.417969 C 5.472656 30.207031 4.820312 29.90625 4.363281 29.507812 Z M 4.363281 29.507812 " fill-opacity="1" fill-rule="nonzero"/><path fill="#000000" d="M 16.824219 30.101562 C 17.246094 30.101562 17.601562 29.96875 17.890625 29.695312 C 18.175781 29.425781 18.328125 29.097656 18.347656 28.710938 L 18.347656 16.269531 C 18.347656 15.882812 18.199219 15.558594 17.902344 15.292969 C 17.605469 15.035156 17.246094 14.902344 16.824219 14.902344 L 16.457031 14.902344 L 16.457031 14.636719 L 24.140625 14.636719 C 24.859375 14.636719 25.492188 14.585938 26.035156 14.484375 C 26.585938 14.378906 26.941406 14.289062 27.101562 14.21875 L 27.101562 17.203125 L 26.808594 17.179688 L 26.808594 16.785156 C 26.808594 16.425781 26.6875 16.113281 26.441406 15.851562 C 26.195312 15.582031 25.875 15.445312 25.488281 15.445312 L 20.011719 15.445312 L 20.011719 22.109375 L 24.511719 22.109375 C 24.867188 22.109375 25.132812 22.003906 25.3125 21.792969 C 25.496094 21.585938 25.589844 21.324219 25.589844 21.011719 L 25.589844 20.667969 L 25.882812 20.667969 L 25.882812 24.335938 L 25.589844 24.335938 L 25.589844 23.992188 C 25.589844 23.507812 25.40625 23.171875 25.042969 22.996094 C 24.898438 22.945312 24.75 22.914062 24.597656 22.894531 L 20.011719 22.894531 L 20.011719 29.558594 L 24.140625 29.558594 C 24.957031 29.558594 25.636719 29.417969 26.1875 29.140625 C 26.738281 28.855469 27.15625 28.519531 27.445312 28.140625 C 27.742188 27.753906 28.035156 27.25 28.335938 26.625 L 28.601562 26.625 L 27.152344 30.367188 L 16.457031 30.367188 L 16.457031 30.101562 Z M 16.824219 30.101562 " fill-opacity="1" fill-rule="nonzero"/><path fill="#000000" d="M 35.765625 15.445312 L 34.367188 15.445312 L 34.367188 28.683594 C 34.386719 29.234375 34.628906 29.644531 35.105469 29.921875 C 35.335938 30.042969 35.589844 30.101562 35.867188 30.101562 L 36.210938 30.101562 L 36.238281 30.367188 L 30.835938 30.367188 L 30.835938 30.101562 L 31.207031 30.101562 C 31.613281 30.101562 31.957031 29.96875 32.246094 29.695312 C 32.53125 29.425781 32.679688 29.097656 32.679688 28.710938 L 32.679688 16.269531 C 32.679688 15.882812 32.53125 15.558594 32.246094 15.292969 C 31.957031 15.035156 31.613281 14.902344 31.207031 14.902344 L 30.835938 14.902344 L 30.835938 14.636719 L 37.445312 14.636719 C 39.09375 14.636719 40.398438 15.011719 41.355469 15.761719 C 42.3125 16.515625 42.792969 17.503906 42.792969 18.734375 C 42.792969 19.957031 42.40625 20.980469 41.636719 21.804688 C 40.863281 22.625 39.882812 23.09375 38.6875 23.210938 C 39.25 23.457031 39.921875 24.140625 40.710938 25.257812 C 40.691406 25.257812 40.992188 25.644531 41.609375 26.410156 C 42.238281 27.175781 42.742188 27.773438 43.125 28.203125 C 43.503906 28.632812 43.816406 28.960938 44.0625 29.191406 C 44.707031 29.796875 45.453125 30.101562 46.300781 30.101562 L 46.300781 30.367188 L 45.488281 30.367188 C 44.09375 30.367188 43.007812 30.097656 42.222656 29.558594 C 41.617188 29.152344 41.070312 28.65625 40.582031 28.066406 C 40.480469 27.921875 40.035156 27.304688 39.25 26.21875 C 38.464844 25.125 38.054688 24.542969 38.003906 24.472656 C 37.054688 23.304688 36.164062 22.714844 35.335938 22.714844 L 35.335938 22.453125 C 37.394531 22.453125 38.632812 22.347656 39.058594 22.136719 C 39.632812 21.839844 40.027344 21.523438 40.238281 21.1875 C 40.675781 20.496094 40.898438 19.730469 40.898438 18.886719 C 40.898438 17.824219 40.582031 17.007812 39.945312 16.433594 C 39.316406 15.851562 38.464844 15.535156 37.394531 15.484375 C 36.917969 15.460938 36.375 15.445312 35.765625 15.445312 Z M 35.765625 15.445312 " fill-opacity="1" fill-rule="nonzero"/><path fill="#000000" d="M 47.722656 30.101562 C 48.144531 30.101562 48.5 29.96875 48.789062 29.695312 C 49.074219 29.425781 49.226562 29.097656 49.246094 28.710938 L 49.246094 16.269531 C 49.246094 15.882812 49.097656 15.558594 48.800781 15.292969 C 48.503906 15.035156 48.144531 14.902344 47.722656 14.902344 L 47.351562 14.902344 L 47.351562 14.636719 L 55.039062 14.636719 C 55.757812 14.636719 56.390625 14.585938 56.933594 14.484375 C 57.480469 14.378906 57.835938 14.289062 58 14.21875 L 58 17.203125 L 57.707031 17.179688 L 57.707031 16.785156 C 57.707031 16.425781 57.582031 16.113281 57.339844 15.851562 C 57.089844 15.582031 56.773438 15.445312 56.386719 15.445312 L 50.910156 15.445312 L 50.910156 22.109375 L 55.40625 22.109375 C 55.761719 22.109375 56.03125 22.003906 56.207031 21.792969 C 56.390625 21.585938 56.488281 21.324219 56.488281 21.011719 L 56.488281 20.667969 L 56.78125 20.667969 L 56.78125 24.335938 L 56.488281 24.335938 L 56.488281 23.992188 C 56.488281 23.507812 56.304688 23.171875 55.941406 22.996094 C 55.796875 22.945312 55.648438 22.914062 55.496094 22.894531 L 50.910156 22.894531 L 50.910156 29.558594 L 55.039062 29.558594 C 55.851562 29.558594 56.53125 29.417969 57.085938 29.140625 C 57.632812 28.855469 58.054688 28.519531 58.34375 28.140625 C 58.636719 27.753906 58.933594 27.25 59.230469 26.625 L 59.5 26.625 L 58.050781 30.367188 L 47.351562 30.367188 L 47.351562 30.101562 Z M 47.722656 30.101562 " fill-opacity="1" fill-rule="nonzero"/><path fill="#000000" d="M 79.433594 14.902344 C 79.042969 14.902344 78.710938 15.027344 78.429688 15.28125 C 78.148438 15.535156 78 15.847656 77.984375 16.21875 L 77.984375 27.382812 C 77.984375 28.394531 78.046875 29.355469 78.175781 30.265625 L 78.226562 30.734375 L 77.984375 30.734375 L 64.289062 17.8125 L 64.289062 28.734375 C 64.289062 29.125 64.429688 29.449219 64.707031 29.707031 C 64.988281 29.972656 65.328125 30.101562 65.738281 30.101562 L 66.179688 30.101562 L 66.179688 30.367188 L 61.214844 30.367188 L 61.214844 30.101562 L 61.65625 30.101562 C 62.054688 30.101562 62.394531 29.972656 62.675781 29.707031 C 62.960938 29.449219 63.105469 29.125 63.105469 28.734375 L 63.105469 17.519531 C 63.105469 16.457031 63.042969 15.507812 62.914062 14.664062 L 62.863281 14.246094 L 63.15625 14.269531 L 76.828125 27.089844 L 76.828125 16.21875 C 76.792969 15.847656 76.632812 15.535156 76.347656 15.28125 C 76.066406 15.027344 75.734375 14.902344 75.355469 14.902344 L 74.910156 14.902344 L 74.910156 14.636719 L 79.878906 14.636719 L 79.878906 14.902344 Z M 79.433594 14.902344 " fill-opacity="1" fill-rule="nonzero"/><path fill="#000000" d="M 99.507812 22.5 C 99.507812 24.929688 98.746094 26.847656 97.222656 28.253906 C 95.703125 29.664062 93.644531 30.367188 91.046875 30.367188 L 82.253906 30.367188 L 82.253906 30.101562 L 82.597656 30.101562 C 83.019531 30.101562 83.371094 29.960938 83.652344 29.683594 C 83.929688 29.40625 84.078125 29.074219 84.097656 28.683594 L 84.097656 16.320312 C 84.078125 15.898438 83.925781 15.558594 83.636719 15.292969 C 83.347656 15.035156 82.992188 14.902344 82.570312 14.902344 L 82.253906 14.902344 L 82.253906 14.636719 L 91.046875 14.636719 C 92.773438 14.636719 94.273438 14.953125 95.542969 15.585938 C 96.8125 16.210938 97.792969 17.117188 98.480469 18.304688 C 99.164062 19.492188 99.507812 20.894531 99.507812 22.5 Z M 85.8125 15.421875 L 85.8125 29.582031 L 91.046875 29.582031 C 93.070312 29.582031 94.671875 28.949219 95.847656 27.6875 C 97.023438 26.414062 97.613281 24.6875 97.613281 22.5 C 97.613281 20.320312 97.023438 18.59375 95.847656 17.332031 C 94.671875 16.058594 93.070312 15.421875 91.046875 15.421875 Z M 85.8125 15.421875 " fill-opacity="1" fill-rule="nonzero"/><path fill="#000000" d="M 102.640625 30.101562 C 103.113281 30.101562 103.523438 29.960938 103.875 29.683594 C 104.230469 29.40625 104.40625 29.074219 104.40625 28.683594 L 104.40625 16.320312 C 104.40625 15.933594 104.230469 15.597656 103.875 15.320312 C 103.523438 15.042969 103.105469 14.902344 102.617188 14.902344 L 102.273438 14.902344 L 102.273438 14.636719 L 108.230469 14.636719 L 108.230469 14.902344 L 107.886719 14.902344 C 107.410156 14.902344 107.003906 15.035156 106.65625 15.292969 C 106.316406 15.558594 106.128906 15.882812 106.097656 16.269531 L 106.097656 28.710938 C 106.113281 29.097656 106.292969 29.425781 106.644531 29.695312 C 107 29.96875 107.410156 30.101562 107.886719 30.101562 L 108.230469 30.101562 L 108.257812 30.367188 L 102.273438 30.367188 L 102.273438 30.101562 Z M 102.640625 30.101562 " fill-opacity="1" fill-rule="nonzero"/><path fill="#000000" d="M 132.777344 20.542969 C 132.402344 20.542969 132.140625 20.636719 131.988281 20.820312 C 131.84375 20.996094 131.773438 21.171875 131.773438 21.339844 C 131.773438 21.507812 131.8125 21.789062 131.886719 22.171875 C 131.96875 22.550781 132.015625 23.054688 132.015625 23.675781 C 132.015625 25.0625 131.6875 26.320312 131.035156 27.457031 C 131.671875 28 132.171875 28.414062 132.535156 28.710938 C 132.90625 28.996094 133.390625 29.292969 133.984375 29.59375 C 134.585938 29.898438 135.140625 30.070312 135.648438 30.101562 L 135.648438 30.367188 C 135.628906 30.367188 135.484375 30.367188 135.203125 30.367188 C 134.929688 30.367188 134.738281 30.367188 134.617188 30.367188 C 134.507812 30.367188 134.300781 30.359375 133.996094 30.339844 C 133.691406 30.324219 133.441406 30.296875 133.246094 30.253906 C 133.050781 30.203125 132.796875 30.144531 132.484375 30.074219 C 132.171875 30.007812 131.890625 29.910156 131.644531 29.785156 C 131.011719 29.507812 130.453125 29.1875 129.980469 28.824219 C 128.734375 30.03125 127.113281 30.632812 125.113281 30.632812 C 122.546875 30.632812 120.558594 30.101562 119.15625 29.039062 C 117.75 27.96875 117.046875 26.457031 117.046875 24.5 C 117.046875 22.335938 118.109375 20.714844 120.234375 19.644531 C 119.566406 18.582031 119.234375 17.414062 119.234375 16.128906 C 119.234375 14.839844 119.707031 13.773438 120.65625 12.929688 C 121.636719 12.078125 122.929688 11.652344 124.53125 11.652344 C 125.425781 11.652344 126.277344 11.828125 127.085938 12.171875 C 127.886719 12.511719 128.527344 12.957031 129.003906 13.511719 L 128.53125 16.46875 L 128.265625 16.46875 C 128.265625 15.214844 127.921875 14.230469 127.238281 13.511719 C 126.558594 12.796875 125.6875 12.4375 124.621094 12.4375 C 123.558594 12.4375 122.699219 12.789062 122.039062 13.488281 C 121.378906 14.1875 121.050781 15.0625 121.050781 16.117188 C 121.050781 17.164062 121.375 18.148438 122.027344 19.074219 C 122.679688 19.996094 123.949219 21.292969 125.839844 22.96875 C 127.734375 24.648438 129.125 25.851562 130.007812 26.585938 C 130.378906 25.785156 130.566406 24.960938 130.566406 24.109375 C 130.566406 23.246094 130.375 22.4375 129.996094 21.679688 C 129.613281 20.921875 129.054688 20.542969 128.316406 20.542969 L 127.921875 20.542969 L 127.921875 20.277344 L 133.171875 20.277344 L 133.171875 20.542969 Z M 129.09375 28.066406 C 124.59375 24.375 121.78125 21.777344 120.65625 20.277344 C 119.539062 21.324219 118.976562 22.6875 118.976562 24.375 C 118.976562 26.0625 119.515625 27.394531 120.59375 28.382812 C 121.664062 29.359375 123.175781 29.847656 125.113281 29.847656 C 126.722656 29.847656 128.050781 29.253906 129.09375 28.066406 Z M 129.09375 28.066406 " fill-opacity="1" fill-rule="nonzero"/><path fill="#000000" d="M 163.570312 30.101562 L 163.988281 30.101562 L 163.988281 30.367188 L 158.269531 30.367188 L 158.269531 30.125 L 158.664062 30.125 C 158.960938 30.125 159.214844 30.007812 159.425781 29.773438 C 159.636719 29.539062 159.726562 29.277344 159.695312 29 L 158.511719 15.8125 L 152.972656 28.066406 C 152.480469 29.128906 152.183594 30.019531 152.082031 30.734375 L 151.816406 30.734375 L 145.070312 16.191406 L 143.9375 29 C 143.902344 29.277344 143.992188 29.539062 144.207031 29.773438 C 144.414062 30.007812 144.664062 30.125 144.941406 30.125 L 145.363281 30.125 L 145.363281 30.367188 L 140.253906 30.367188 L 140.253906 30.101562 L 140.671875 30.101562 C 141.164062 30.101562 141.589844 29.957031 141.945312 29.660156 C 142.304688 29.363281 142.527344 28.960938 142.605469 28.457031 L 144.574219 11.652344 L 144.839844 11.652344 L 152.183594 27.457031 L 159.375 11.652344 L 159.617188 11.652344 L 161.636719 28.457031 C 161.730469 29.160156 162.082031 29.644531 162.691406 29.921875 C 162.953125 30.042969 163.246094 30.101562 163.570312 30.101562 Z M 163.570312 30.101562 " fill-opacity="1" fill-rule="nonzero"/><path fill="#000000" d="M 181.765625 30.101562 L 181.980469 30.101562 L 181.980469 30.367188 L 176.582031 30.367188 L 176.582031 30.101562 L 176.785156 30.101562 C 177.121094 30.101562 177.375 29.988281 177.546875 29.757812 C 177.722656 29.53125 177.8125 29.324219 177.8125 29.128906 C 177.8125 28.925781 177.777344 28.730469 177.710938 28.53125 L 176.261719 25.042969 L 169.59375 25.042969 L 168.144531 28.457031 C 168.058594 28.683594 168.015625 28.898438 168.015625 29.101562 C 168.015625 29.296875 168.105469 29.511719 168.285156 29.746094 C 168.460938 29.984375 168.722656 30.101562 169.070312 30.101562 L 169.289062 30.101562 L 169.289062 30.367188 L 164.257812 30.367188 L 164.257812 30.101562 L 164.460938 30.101562 C 164.832031 30.101562 165.203125 29.972656 165.578125 29.722656 C 165.957031 29.46875 166.269531 29.089844 166.519531 28.582031 C 170.363281 20.410156 172.367188 16.125 172.527344 15.738281 C 172.824219 15.003906 172.980469 14.515625 172.996094 14.269531 L 173.238281 14.269531 L 179.746094 28.582031 C 180.253906 29.59375 180.925781 30.101562 181.765625 30.101562 Z M 169.9375 24.257812 L 175.945312 24.257812 L 172.996094 17.078125 Z M 169.9375 24.257812 " fill-opacity="1" fill-rule="nonzero"/><path fill="#000000" d="M 188.226562 15.445312 L 186.828125 15.445312 L 186.828125 28.683594 C 186.84375 29.234375 187.089844 29.644531 187.566406 29.921875 C 187.792969 30.042969 188.046875 30.101562 188.328125 30.101562 L 188.671875 30.101562 L 188.695312 30.367188 L 183.296875 30.367188 L 183.296875 30.101562 L 183.664062 30.101562 C 184.070312 30.101562 184.417969 29.96875 184.707031 29.695312 C 184.992188 29.425781 185.136719 29.097656 185.136719 28.710938 L 185.136719 16.269531 C 185.136719 15.882812 184.992188 15.558594 184.707031 15.292969 C 184.417969 15.035156 184.070312 14.902344 183.664062 14.902344 L 183.296875 14.902344 L 183.296875 14.636719 L 189.902344 14.636719 C 191.554688 14.636719 192.855469 15.011719 193.816406 15.761719 C 194.773438 16.515625 195.25 17.503906 195.25 18.734375 C 195.25 19.957031 194.863281 20.980469 194.09375 21.804688 C 193.324219 22.625 192.34375 23.09375 191.148438 23.210938 C 191.707031 23.457031 192.378906 24.140625 193.167969 25.257812 C 193.148438 25.257812 193.449219 25.644531 194.070312 26.410156 C 194.695312 27.175781 195.199219 27.773438 195.582031 28.203125 C 195.964844 28.632812 196.273438 28.960938 196.523438 29.191406 C 197.164062 29.796875 197.910156 30.101562 198.757812 30.101562 L 198.757812 30.367188 L 197.945312 30.367188 C 196.554688 30.367188 195.46875 30.097656 194.679688 29.558594 C 194.078125 29.152344 193.53125 28.65625 193.039062 28.066406 C 192.9375 27.921875 192.496094 27.304688 191.707031 26.21875 C 190.925781 25.125 190.511719 24.542969 190.460938 24.472656 C 189.511719 23.304688 188.621094 22.714844 187.792969 22.714844 L 187.792969 22.453125 C 189.851562 22.453125 191.089844 22.347656 191.515625 22.136719 C 192.089844 21.839844 192.484375 21.523438 192.699219 21.1875 C 193.136719 20.496094 193.359375 19.730469 193.359375 18.886719 C 193.359375 17.824219 193.039062 17.007812 192.40625 16.433594 C 191.777344 15.851562 190.925781 15.535156 189.851562 15.484375 C 189.375 15.460938 188.835938 15.445312 188.226562 15.445312 Z M 188.226562 15.445312 " fill-opacity="1" fill-rule="nonzero"/><path fill="#000000" d="M 223.46875 34.375 C 226.136719 34.375 228.222656 33.683594 229.734375 32.300781 L 229.808594 32.414062 C 229.6875 32.722656 229.429688 33.078125 229.035156 33.476562 C 228.632812 33.882812 228.085938 34.292969 227.382812 34.714844 C 225.964844 35.515625 224.476562 35.917969 222.910156 35.917969 C 221.308594 35.917969 219.726562 35.589844 218.171875 34.929688 C 217.515625 34.667969 216.550781 34.203125 215.273438 33.539062 C 212.214844 31.945312 209.957031 31.011719 208.5 30.734375 C 205.992188 30.734375 203.894531 29.96875 202.210938 28.433594 C 200.527344 26.890625 199.683594 24.914062 199.683594 22.5 C 199.683594 21.3125 199.90625 20.207031 200.359375 19.175781 C 200.816406 18.148438 201.429688 17.277344 202.210938 16.558594 C 203 15.84375 203.925781 15.28125 204.996094 14.878906 C 206.070312 14.472656 207.300781 14.269531 208.691406 14.269531 C 210.089844 14.269531 211.449219 14.617188 212.769531 15.308594 C 214.097656 16 215.148438 16.972656 215.921875 18.226562 C 216.699219 19.484375 217.089844 20.910156 217.089844 22.5 C 217.089844 24.535156 216.480469 26.269531 215.261719 27.710938 C 214.042969 29.152344 212.457031 30.082031 210.507812 30.492188 C 212.015625 30.929688 214.621094 31.882812 218.324219 33.351562 C 220.027344 34.03125 221.742188 34.375 223.46875 34.375 Z M 203.558594 17.140625 C 202.269531 18.53125 201.628906 20.320312 201.628906 22.5 C 201.628906 24.6875 202.269531 26.472656 203.558594 27.863281 C 204.855469 29.253906 206.460938 29.949219 208.386719 29.949219 C 210.308594 29.949219 211.917969 29.253906 213.214844 27.863281 C 214.519531 26.472656 215.171875 24.6875 215.171875 22.5 C 215.171875 20.320312 214.519531 18.53125 213.214844 17.140625 C 211.917969 15.75 210.308594 15.054688 208.386719 15.054688 C 206.460938 15.054688 204.855469 15.75 203.558594 17.140625 Z M 203.558594 17.140625 " fill-opacity="1" fill-rule="nonzero"/><path fill="#000000" d="M 236.351562 14.902344 L 235.945312 14.902344 C 235.46875 14.902344 235.109375 15.085938 234.863281 15.445312 C 234.761719 15.609375 234.703125 15.792969 234.6875 16.003906 L 234.6875 24.839844 C 234.6875 26.65625 234.101562 28.089844 232.933594 29.152344 C 231.761719 30.207031 230.15625 30.734375 228.117188 30.734375 C 226.085938 30.734375 224.476562 30.210938 223.300781 29.164062 C 222.132812 28.113281 221.546875 26.679688 221.546875 24.867188 L 221.546875 16.027344 C 221.546875 15.71875 221.421875 15.453125 221.167969 15.230469 C 220.917969 15.011719 220.625 14.902344 220.277344 14.902344 L 219.882812 14.902344 L 219.882812 14.636719 L 224.890625 14.636719 L 224.890625 14.902344 L 224.496094 14.902344 C 224.140625 14.902344 223.839844 15.011719 223.59375 15.230469 C 223.347656 15.453125 223.226562 15.71875 223.226562 16.027344 L 223.226562 24.550781 C 223.226562 26.246094 223.65625 27.582031 224.519531 28.558594 C 225.390625 29.539062 226.625 30.023438 228.21875 30.023438 C 229.808594 30.023438 231.082031 29.5625 232.042969 28.632812 C 233 27.707031 233.480469 26.445312 233.480469 24.839844 L 233.480469 16.027344 C 233.460938 15.699219 233.332031 15.429688 233.097656 15.21875 C 232.859375 15.011719 232.5625 14.902344 232.207031 14.902344 L 231.8125 14.902344 L 231.8125 14.636719 L 236.351562 14.636719 Z M 236.351562 14.902344 " fill-opacity="1" fill-rule="nonzero"/><path fill="#000000" d="M 239.085938 30.101562 C 239.558594 30.101562 239.96875 29.960938 240.316406 29.683594 C 240.671875 29.40625 240.851562 29.074219 240.851562 28.683594 L 240.851562 16.320312 C 240.851562 15.933594 240.671875 15.597656 240.316406 15.320312 C 239.96875 15.042969 239.546875 14.902344 239.058594 14.902344 L 238.714844 14.902344 L 238.714844 14.636719 L 244.675781 14.636719 L 244.675781 14.902344 L 244.332031 14.902344 C 243.855469 14.902344 243.445312 15.035156 243.097656 15.292969 C 242.757812 15.558594 242.570312 15.882812 242.539062 16.269531 L 242.539062 28.710938 C 242.554688 29.097656 242.738281 29.425781 243.085938 29.695312 C 243.441406 29.96875 243.855469 30.101562 244.332031 30.101562 L 244.675781 30.101562 L 244.699219 30.367188 L 238.714844 30.367188 L 238.714844 30.101562 Z M 239.085938 30.101562 " fill-opacity="1" fill-rule="nonzero"/><path fill="#000000" d="M 247.644531 29.507812 C 247.59375 29.296875 247.566406 28.867188 247.566406 28.21875 C 247.566406 27.570312 247.679688 26.914062 247.910156 26.257812 L 248.226562 26.257812 C 248.207031 26.410156 248.203125 26.566406 248.203125 26.726562 C 248.203125 27.671875 248.511719 28.445312 249.128906 29.050781 C 249.753906 29.652344 250.621094 29.949219 251.734375 29.949219 C 252.882812 29.949219 253.785156 29.683594 254.441406 29.152344 C 255.089844 28.613281 255.417969 27.921875 255.417969 27.078125 C 255.417969 26.230469 255.101562 25.523438 254.464844 24.96875 L 249.207031 20.933594 C 248.355469 20.21875 247.933594 19.257812 247.933594 18.050781 C 247.933594 17.367188 248.117188 16.742188 248.492188 16.167969 C 248.875 15.585938 249.402344 15.128906 250.082031 14.789062 C 250.757812 14.445312 251.550781 14.269531 252.457031 14.269531 C 253.371094 14.269531 254.179688 14.351562 254.886719 14.511719 L 255.761719 14.511719 L 255.8125 17.367188 L 255.519531 17.367188 C 255.519531 16.636719 255.265625 16.066406 254.757812 15.660156 C 254.25 15.257812 253.519531 15.054688 252.574219 15.054688 C 251.621094 15.054688 250.839844 15.292969 250.222656 15.773438 C 249.613281 16.253906 249.308594 16.882812 249.308594 17.648438 C 249.308594 18.40625 249.648438 19.0625 250.335938 19.617188 L 255.648438 23.703125 C 256.460938 24.371094 256.867188 25.296875 256.867188 26.484375 C 256.867188 27.671875 256.414062 28.679688 255.507812 29.507812 C 254.597656 30.324219 253.5 30.734375 252.203125 30.734375 C 251.339844 30.734375 250.476562 30.625 249.613281 30.417969 C 248.753906 30.207031 248.101562 29.90625 247.644531 29.507812 Z M 247.644531 29.507812 " fill-opacity="1" fill-rule="nonzero"/><path fill="#000000" d="M 260.105469 30.101562 C 260.527344 30.101562 260.882812 29.96875 261.171875 29.695312 C 261.457031 29.425781 261.609375 29.097656 261.628906 28.710938 L 261.628906 16.269531 C 261.628906 15.882812 261.480469 15.558594 261.183594 15.292969 C 260.886719 15.035156 260.527344 14.902344 260.105469 14.902344 L 259.734375 14.902344 L 259.734375 14.636719 L 267.421875 14.636719 C 268.140625 14.636719 268.773438 14.585938 269.316406 14.484375 C 269.863281 14.378906 270.222656 14.289062 270.382812 14.21875 L 270.382812 17.203125 L 270.089844 17.179688 L 270.089844 16.785156 C 270.089844 16.425781 269.96875 16.113281 269.722656 15.851562 C 269.472656 15.582031 269.15625 15.445312 268.769531 15.445312 L 263.292969 15.445312 L 263.292969 22.109375 L 267.792969 22.109375 C 268.148438 22.109375 268.414062 22.003906 268.589844 21.792969 C 268.777344 21.585938 268.871094 21.324219 268.871094 21.011719 L 268.871094 20.667969 L 269.164062 20.667969 L 269.164062 24.335938 L 268.871094 24.335938 L 268.871094 23.992188 C 268.871094 23.507812 268.6875 23.171875 268.324219 22.996094 C 268.179688 22.945312 268.03125 22.914062 267.878906 22.894531 L 263.292969 22.894531 L 263.292969 29.558594 L 267.421875 29.558594 C 268.234375 29.558594 268.914062 29.417969 269.46875 29.140625 C 270.019531 28.855469 270.4375 28.519531 270.726562 28.140625 C 271.019531 27.753906 271.316406 27.25 271.617188 26.625 L 271.882812 26.625 L 270.433594 30.367188 L 259.734375 30.367188 L 259.734375 30.101562 Z M 260.105469 30.101562 " fill-opacity="1" fill-rule="nonzero"/><path fill="#000000" d="M 275.882812 30.125 C 275.65625 30.355469 275.367188 30.46875 275.03125 30.46875 C 274.703125 30.46875 274.421875 30.355469 274.195312 30.125 C 273.964844 29.898438 273.851562 29.621094 273.851562 29.292969 C 273.851562 28.960938 273.964844 28.683594 274.195312 28.457031 C 274.421875 28.230469 274.703125 28.117188 275.03125 28.117188 C 275.367188 28.117188 275.65625 28.230469 275.882812 28.457031 C 276.113281 28.683594 276.226562 28.960938 276.226562 29.292969 C 276.226562 29.621094 276.113281 29.898438 275.882812 30.125 Z M 275.882812 30.125 " fill-opacity="1" fill-rule="nonzero"/></svg>